<svg xmlns="http://www.w3.org/2000/svg" viewBox="0 0 300 230" role="img" aria-label="BIMVORA  HVAC Clean Room primary logo">
  <defs>
    <linearGradient id="voraGrad" x1="0" y1="0" x2="1" y2="1">
      <stop offset="0" stop-color="#16345E"/>
      <stop offset="1" stop-color="#4FA0DD"/>
    </linearGradient>
  </defs>
  <g transform="translate(102,16)">
    <circle cx="48" cy="48" r="43.5" fill="none" stroke="url(#voraGrad)" stroke-width="3.6"/>
    <g fill="url(#voraGrad)" transform="scale(1.5)">
      <path d="M32 32 C 33 21, 41 16, 51 18 C 45 23, 41 29, 32 32 Z"/>
      <path d="M32 32 C 33 21, 41 16, 51 18 C 45 23, 41 29, 32 32 Z" transform="rotate(120 32 32)"/>
      <path d="M32 32 C 33 21, 41 16, 51 18 C 45 23, 41 29, 32 32 Z" transform="rotate(240 32 32)"/>
    </g>
    <circle cx="48" cy="48" r="3.9" fill="#16345E"/>
  </g>
  <text x="150" y="168" text-anchor="middle" font-family="'Segoe UI','Helvetica Neue',Arial,sans-serif" font-size="40" font-weight="800" letter-spacing="1.5">
    <tspan fill="#16345E">BIM</tspan><tspan fill="#4FA0DD">VORA</tspan>
  </text>
  <text x="150" y="192" text-anchor="middle" font-family="'Segoe UI','Helvetica Neue',Arial,sans-serif" font-size="12" font-weight="600" letter-spacing="6" fill="#16345E">HVAC · CLEAN ROOM</text>
  <text x="150" y="212" text-anchor="middle" font-family="'Segoe UI','Helvetica Neue',Arial,sans-serif" font-size="9" font-weight="500" letter-spacing="3" fill="#6B7B90">HEATING · VENTILATION · AIR CONDITIONING</text>
</svg>
